<svg width="32" height="32" viewBox="0 0 32 32" fill="none" xmlns="http://www.w3.org/2000/svg">
<path d="M2.66699 29.3334H29.3337" stroke="#FF6D6F" stroke-width="1.5" stroke-linecap="round" stroke-linejoin="round"/>
<path d="M4.14648 29.3334V17.3334C4.14648 15.12 6.13315 13.3334 8.58648 13.3334H23.3998C25.8531 13.3334 27.8398 15.12 27.8398 17.3334V29.3334" stroke="#FF6D6F" stroke-width="1.5" stroke-linecap="round" stroke-linejoin="round"/>
<path d="M7.41309 13.3333V9.55996C7.41309 7.95996 8.85309 6.66663 10.6398 6.66663H21.3731C23.1464 6.66663 24.5864 7.95996 24.5864 9.55996V13.3333" stroke="#FF6D6F" stroke-width="1.5" stroke-linecap="round" stroke-linejoin="round"/>
<path d="M4.70703 18.64L5.20036 18.6533C6.18703 18.6667 6.9737 19.4667 6.9737 20.4533V20.8933C6.9737 21.88 7.7737 22.6933 8.7737 22.6933C9.76036 22.6933 10.5737 21.8933 10.5737 20.8933V20.48C10.5737 19.4933 11.3737 18.68 12.3737 18.68C13.3604 18.68 14.1737 19.48 14.1737 20.48V20.8933C14.1737 21.88 14.9737 22.6933 15.9737 22.6933C16.9604 22.6933 17.7737 21.8933 17.7737 20.8933V20.48C17.7737 19.4933 18.5737 18.68 19.5737 18.68C20.5604 18.68 21.3737 19.48 21.3737 20.48V20.8933C21.3737 21.88 22.1737 22.6933 23.1737 22.6933C24.1604 22.6933 24.9737 21.8933 24.9737 20.8933V20.48C24.9737 19.4933 25.7737 18.68 26.7737 18.68H27.3737" stroke="#FF6D6F" stroke-width="1.5" stroke-linecap="round" stroke-linejoin="round"/>
<path d="M10.667 6.66667V4" stroke="#FF6D6F" stroke-width="1.5" stroke-linecap="round" stroke-linejoin="round"/>
<path d="M21.333 6.66667V4" stroke="#FF6D6F" stroke-width="1.5" stroke-linecap="round" stroke-linejoin="round"/>
<path d="M16 6.66663V2.66663" stroke="#FF6D6F" stroke-width="1.5" stroke-linecap="round" stroke-linejoin="round"/>
</svg>
