<svg width="32" height="32" viewBox="0 0 32 32" fill="none" xmlns="http://www.w3.org/2000/svg">
<path d="M11.7466 2.66666L6.91992 7.50666" stroke="#FF6D6F" stroke-width="1.5" stroke-miterlimit="10" stroke-linecap="round" stroke-linejoin="round"/>
<path d="M20.2539 2.66666L25.0806 7.50666" stroke="#FF6D6F" stroke-width="1.5" stroke-miterlimit="10" stroke-linecap="round" stroke-linejoin="round"/>
<path d="M2.66602 10.4667C2.66602 8 3.98602 7.8 5.62602 7.8H26.3727C28.0127 7.8 29.3327 8 29.3327 10.4667C29.3327 13.3333 28.0127 13.1333 26.3727 13.1333H5.62602C3.98602 13.1333 2.66602 13.3333 2.66602 10.4667Z" stroke="#FF6D6F" stroke-width="1.5"/>
<path d="M13.0137 18.6667V23.4" stroke="#FF6D6F" stroke-width="1.5" stroke-linecap="round"/>
<path d="M19.1465 18.6667V23.4" stroke="#FF6D6F" stroke-width="1.5" stroke-linecap="round"/>
<path d="M4.66602 13.3333L6.54602 24.8533C6.97268 27.44 7.99935 29.3333 11.8127 29.3333H19.8527C23.9993 29.3333 24.6127 27.52 25.0927 25.0133L27.3327 13.3333" stroke="#FF6D6F" stroke-width="1.5" stroke-linecap="round"/>
</svg>
